# xmcd
# Track frame offsets:
# 150
# 11348
# 20361
# 32264
# 42187
# 50363
# 61808
# 73252
# 83890
# 94115
# 105728
# 115995
# 123965
# 135265
# 148115
# 158985
# 169280
# 180844
# 193438
# 205184
#
# Disc length: 2873 seconds
# Revision: 0
# Processed by: cddbd v1.5.2PL0 Copyright (c) Steve Scherf et al.
# Submitted via: VisiTrax 2.11.3.279 - For more info visit www.synapsa.com
#
DISCID=0b0b3714
DTITLE=Various(1950's-1960's) Female Artists - Girl Groups of the 50's and 60's
DTITLE=: CD3 of 3: *ReMastered Tracks
DYEAR=2015
DGENRE=Pop
TTITLE0=Marvelettes The - Love Letters*
TTITLE1=Sherrys The - Slop Time*
TTITLE2=Charmaines The - Where Is The Boy Tonight*
TTITLE3=Shirelles The - Irresistable You*
TTITLE4=Ikettes The - Trouble On My Mind*
TTITLE5=Charmaines The - On The Wagon*
TTITLE6=McGuire Sisters The - Sugartime*
TTITLE7=Bobbettes The - Have Mercy Baby*
TTITLE8=Poni-Tails The - Come On Be My Love*
TTITLE9=Crystals The - There's No Other (Like My Baby)*
TTITLE10=Donays The - Bad Boy*
TTITLE11=Chiffons The - Tonight's The Night*
TTITLE12=Exciters The - Tell Him*
TTITLE13=Orlons The - Let Me In*
TTITLE14=Chantels The - Well I Told You*
TTITLE15=Contessas The - Hard Guy To Please*
TTITLE16=Paris Sisters The - He Knows I Love Him Too Much*
TTITLE17=Angels The - Cry Baby Cry*
TTITLE18=Shirley Gunter and The Queens - You're Mine*
TTITLE19=Sharmettes The - Tell Me*
EXTD=Compilation and ReMastering: Metro Tins/Union Square: 2015
EXTT0=
EXTT1=
EXTT2=
EXTT3=
EXTT4=
EXTT5=
EXTT6=
EXTT7=
EXTT8=
EXTT9=
EXTT10=
EXTT11=
EXTT12=
EXTT13=
EXTT14=
EXTT15=
EXTT16=
EXTT17=
EXTT18=
EXTT19=
PLAYORDER=
